<svg width="1120" height="183" viewBox="0 0 1120 183" fill="none" xmlns="http://www.w3.org/2000/svg">
<mask id="path-1-inside-1_11706_804" fill="white">
<path d="M1120 177C1120 180.314 1117.31 183 1114 183H6C2.6863 183 0 180.314 0 177V6C0 2.6863 2.68629 0 6 0H180.284C182.254 0 184.099 0.967693 185.22 2.58889L207.211 34.4111C208.331 36.0323 210.176 37 212.147 37H1114C1117.31 37 1120 39.6863 1120 43V177Z"/>
</mask>
<path d="M1120 177C1120 180.314 1117.31 183 1114 183H6C2.6863 183 0 180.314 0 177V6C0 2.6863 2.68629 0 6 0H180.284C182.254 0 184.099 0.967693 185.22 2.58889L207.211 34.4111C208.331 36.0323 210.176 37 212.147 37H1114C1117.31 37 1120 39.6863 1120 43V177Z" fill="#151515" fill-opacity="0.52"/>
<path d="M207.211 34.4111L206.388 34.9796L207.211 34.4111ZM1114 183V182H6V183V184H1114V183ZM0 177H1V6H0H-1V177H0ZM6 0V1H180.284V0V-1H6V0ZM185.22 2.58889L184.397 3.15741L206.388 34.9796L207.211 34.4111L208.034 33.8426L186.042 2.02038L185.22 2.58889ZM212.147 37V38H1114V37V36H212.147V37ZM1120 43H1119V177H1120H1121V43H1120ZM1114 37V38C1116.76 38 1119 40.2386 1119 43H1120H1121C1121 39.134 1117.87 36 1114 36V37ZM207.211 34.4111L206.388 34.9796C207.695 36.871 209.848 38 212.147 38V37V36C210.505 36 208.967 35.1936 208.034 33.8426L207.211 34.4111ZM180.284 0V1C181.926 1 183.463 1.80641 184.397 3.15741L185.22 2.58889L186.042 2.02038C184.735 0.128975 182.583 -1 180.284 -1V0ZM0 6H1C1 3.23858 3.23858 1 6 1V0V-1C2.13401 -1 -1 2.13401 -1 6H0ZM6 183V182C3.23858 182 1 179.761 1 177H0H-1C-1 180.866 2.13401 184 6 184V183ZM1114 183V184C1117.87 184 1121 180.866 1121 177H1120H1119C1119 179.761 1116.76 182 1114 182V183Z" fill="#242424" mask="url(#path-1-inside-1_11706_804)"/>
</svg>
