<svg width="158" height="99" viewBox="0 0 158 99" fill="none" xmlns="http://www.w3.org/2000/svg">
<path d="M157.545 22.6L157.505 22.23C157.425 21.52 156.795 17.81 152.575 14.75C148.475 11.76 142.215 10.33 134.105 10.51L132.835 10.54V21.46L134.165 21.43C142.855 21.2 145.765 23.24 146.555 24.01C144.835 39.72 91.3248 63.68 41.2648 78.43L39.4448 79L40.6348 80.51C41.6848 81.84 43.4248 84.05 45.5448 86.11L45.9848 86.53C46.3348 86.86 46.6848 87.19 47.0548 87.5L47.3848 87.76C55.7548 94.83 66.3848 98.71 77.3548 98.71C100.905 98.71 120.625 81.23 123.495 57.94C146.735 45.59 157.875 34.07 157.535 22.62L157.545 22.6ZM77.3648 87.72C71.5848 87.72 65.9348 86.32 60.8548 83.66C70.9748 80.27 85.0448 75.27 99.0748 69.37C103.025 67.71 106.965 65.97 110.825 64.19C105.785 78.18 92.4148 87.72 77.3648 87.72Z" fill="url(#paint0_linear_82_43)" stroke="#000"/>
<path d="M123.865 36.32V0L112.905 3.99V29.53C71.7948 49.62 28.1048 61.64 13.5048 62.76C16.4948 60.32 21.6648 57.16 27.5648 54.21L27.5948 54.19C27.6848 54.15 27.7948 54.1 27.9348 54.02L33.1948 51.48C34.0848 51.06 35.0448 50.6 36.0848 50.12C37.6448 49.38 39.3248 48.61 41.0548 47.82L41.8148 47.47V15.2L30.8548 19.19V40.64C15.0548 47.27 -2.70519 57.26 0.344813 67.76C0.694813 68.99 1.73481 71.26 4.78481 72.6C6.37481 73.3 8.56481 73.64 11.4848 73.64C33.5848 73.64 88.2148 54.34 122.285 37.1L123.875 36.32H123.865Z" fill="url(#paint1_linear_82_43)" stroke="#000"/>
<defs>
<linearGradient id="paint0_linear_82_43" x1="-59.3361" y1="6.50692" x2="420.189" y2="203.448" gradientUnits="userSpaceOnUse">
<stop stop-color="#14EFC0"/>
<stop offset="1" stop-color="#2DBDC5"/>
</linearGradient>
<linearGradient id="paint1_linear_82_43" x1="-3.83519" y1="12.84" x2="371.695" y2="142.21" gradientUnits="userSpaceOnUse">
<stop stop-color="#14EFC0"/>
<stop offset="1" stop-color="#2DBDC5"/>
</linearGradient>
</defs>
</svg>
