<svg width="285" height="77" viewBox="0 0 285 77" fill="none" xmlns="http://www.w3.org/2000/svg">
<path d="M58.73 0H51.03C49.79 0 49.11 0.680006 49.11 1.92001V30.11C49.11 31.96 48.97 33.51 48.7 34.73C48.43 35.91 47.97 36.85 47.31 37.53C46.66 38.21 45.75 38.7 44.62 38.98C43.46 39.28 41.96 39.43 40.15 39.43H20.58C18.78 39.43 17.28 39.28 16.11 38.98C14.98 38.69 14.07 38.2 13.42 37.53C12.76 36.85 12.28 35.91 11.99 34.73C11.69 33.52 11.54 31.97 11.54 30.12V1.93C11.54 0.69 10.86 0.0100021 9.62 0.0100021H1.98999C0.70999 0.0100021 0 0.69 0 1.93V31.18C0 34.6 0.370001 37.54 1.11 39.94C1.86 42.37 3.05 44.37 4.67 45.89C6.28 47.41 8.38999 48.52 10.94 49.19C13.45 49.85 16.55 50.19 20.15 50.19H40.5C44.1 50.19 47.21 49.85 49.74 49.19C52.31 48.52 54.43 47.41 56.04 45.89C57.66 44.37 58.85 42.36 59.57 39.93C60.28 37.53 60.64 34.58 60.64 31.17V1.92001C60.64 0.680006 59.96 0 58.72 0H58.73Z" fill="url(#paint0_linear_82_28)"/>
<path d="M105.72 10.6699H85.94C82.73 10.6699 80 10.9499 77.83 11.4899C75.64 12.0399 73.85 12.9299 72.52 14.1199C71.18 15.3099 70.21 16.8699 69.62 18.7299C69.05 20.5699 68.76 22.8099 68.76 25.3699V48.2599C68.76 49.4999 69.47 50.1799 70.75 50.1799H77.68C78.92 50.1799 79.6 49.4999 79.6 48.2599V27.2799C79.6 25.8499 79.72 24.6299 79.94 23.6499C80.16 22.7099 80.54 21.9599 81.08 21.4199C81.62 20.8799 82.36 20.4799 83.28 20.2399C84.24 19.9899 85.47 19.8599 86.93 19.8599H105.72C106.77 19.8599 107.36 19.2799 107.36 18.2199V12.2799C107.36 11.2299 106.78 10.6399 105.72 10.6399V10.6699Z" fill="url(#paint1_linear_82_28)"/>
<path d="M158.23 49.9299C158.95 49.7499 159.55 49.4199 160 48.9399C160.44 48.4699 160.76 47.8299 160.94 47.0399C161.11 46.2799 161.2 45.3199 161.2 44.1699V25.3799C161.2 22.8099 160.91 20.5799 160.34 18.7399C159.76 16.8699 158.78 15.3199 157.44 14.1299C156.11 12.9399 154.31 12.0599 152.09 11.4999C149.9 10.9499 147.18 10.6799 144.02 10.6799H113.5C112.45 10.6799 111.86 11.2599 111.86 12.3199V18.2599C111.86 19.3099 112.44 19.8999 113.5 19.8999H143.03C144.55 19.8999 145.8 20.0199 146.76 20.2399C147.69 20.4599 148.42 20.7999 148.94 21.2599C149.46 21.7099 149.81 22.2899 150.03 23.0299C150.25 23.7999 150.37 24.7399 150.37 25.8199V26.7999H121.98C119.88 26.7999 118.1 27.0099 116.69 27.4199C115.25 27.8299 114.07 28.4699 113.18 29.3099C112.29 30.1499 111.65 31.1899 111.28 32.3999C110.92 33.5799 110.73 34.9399 110.73 36.4299V39.8199C110.73 41.5899 110.91 43.1399 111.27 44.4399C111.64 45.7699 112.28 46.8699 113.17 47.7199C114.06 48.5599 115.24 49.1899 116.68 49.6099C118.09 50.0199 119.87 50.2299 121.97 50.2299H155.6C156.66 50.2299 157.55 50.1399 158.23 49.9699V49.9299ZM124.86 41.6899C123.51 41.6899 122.56 41.4299 122.04 40.9099C121.53 40.3999 121.26 39.5399 121.26 38.3799V36.8999C121.26 35.8699 121.52 35.0899 122.04 34.5799C122.55 34.0599 123.5 33.7999 124.86 33.7999H150.35V39.6499C150.35 40.6499 150.15 41.0899 149.98 41.2799C149.75 41.5499 149.3 41.6799 148.67 41.6799H124.86V41.6899Z" fill="url(#paint2_linear_82_28)"/>
<path d="M204.77 20.3799C206.23 20.3799 207.44 20.5099 208.35 20.7599C209.22 20.9999 209.91 21.3899 210.4 21.9299C210.89 22.4699 211.23 23.2199 211.41 24.1499C211.59 25.1499 211.69 26.3699 211.69 27.7899V48.2799C211.69 49.5199 212.37 50.1999 213.61 50.1999H220.53C221.77 50.1999 222.45 49.5199 222.45 48.2799V25.3899C222.45 22.8199 222.16 20.5899 221.59 18.7499C221.01 16.8799 220.03 15.3299 218.69 14.1299C217.36 12.9399 215.56 12.0599 213.34 11.5099C211.15 10.9599 208.43 10.6899 205.27 10.6899H184.99C181.78 10.6899 179.05 10.9699 176.88 11.5099C174.69 12.0599 172.9 12.9499 171.57 14.1399C170.23 15.3299 169.26 16.8899 168.67 18.7499C168.1 20.5899 167.81 22.8299 167.81 25.3899V48.2799C167.81 49.5199 168.52 50.1999 169.8 50.1999H176.73C177.97 50.1999 178.65 49.5199 178.65 48.2799V27.7899C178.65 26.3599 178.77 25.1399 178.99 24.1599C179.21 23.2199 179.59 22.4699 180.13 21.9299C180.67 21.3899 181.41 20.9899 182.33 20.7499C183.29 20.4999 184.52 20.3699 185.98 20.3699H204.77V20.3799Z" fill="url(#paint3_linear_82_28)"/>
<path d="M283.34 18.7399C282.76 16.8699 281.78 15.3199 280.44 14.1299C279.11 12.9399 277.31 12.0599 275.09 11.4999C272.9 10.9499 270.18 10.6799 267.02 10.6799H247.02C243.81 10.6799 241.08 10.9599 238.91 11.4999C236.72 12.0499 234.93 12.9399 233.6 14.1299C232.26 15.3199 231.28 16.8799 230.7 18.7399C230.13 20.5799 229.84 22.8199 229.84 25.3799V35.5499C229.84 38.1199 230.13 40.3499 230.7 42.1899C231.28 44.0599 232.26 45.6099 233.6 46.7999C234.93 47.9899 236.72 48.8599 238.91 49.3899C241.07 49.9099 243.8 50.1799 247.02 50.1799H267.02C270.19 50.1799 272.91 49.9099 275.09 49.3899C277.3 48.8599 279.1 47.9899 280.44 46.7999C281.78 45.6099 282.75 44.0499 283.34 42.1899C283.91 40.3499 284.2 38.1099 284.2 35.5499V25.3799C284.2 22.8099 283.91 20.5799 283.34 18.7399ZM240.68 27.0799C240.68 25.6499 240.8 24.4399 241.02 23.4899C241.24 22.5699 241.62 21.8199 242.16 21.2599C242.7 20.6999 243.43 20.3099 244.35 20.0899C245.31 19.8599 246.54 19.7499 248.01 19.7499H266.03C267.55 19.7499 268.8 19.8699 269.76 20.0899C270.67 20.3099 271.41 20.6999 271.95 21.2599C272.49 21.8199 272.87 22.5699 273.09 23.4899C273.32 24.4499 273.43 25.6599 273.43 27.0799V33.7899C273.43 35.2599 273.31 36.4899 273.09 37.4499C272.87 38.3699 272.49 39.1099 271.95 39.6399C271.41 40.1799 270.67 40.5799 269.75 40.8199C268.79 41.0699 267.54 41.1999 266.03 41.1999H248.01C246.54 41.1999 245.31 41.0699 244.36 40.8199C243.44 40.5799 242.7 40.1799 242.16 39.6399C241.62 39.0999 241.24 38.3599 241.02 37.4499C240.79 36.4999 240.68 35.2599 240.68 33.7899V27.0799Z" fill="url(#paint4_linear_82_28)"/>
<path d="M145.78 63.8799H138.15C137.27 63.8799 136.52 63.9599 135.91 64.1299C135.3 64.2999 134.8 64.5599 134.41 64.9299C134.02 65.2899 133.74 65.7699 133.56 66.3399C133.38 66.9199 133.29 67.6199 133.29 68.4599V71.4399C133.29 72.2699 133.38 72.9799 133.56 73.5699C133.74 74.1499 134.02 74.6299 134.41 74.9899C134.8 75.3499 135.3 75.6199 135.91 75.7799C136.52 75.9399 137.27 76.0199 138.15 76.0199H145.78C146.05 76.0199 146.18 75.8899 146.18 75.6399V73.9899C146.18 73.7399 146.05 73.6099 145.78 73.6099H138.2C137.75 73.6099 137.38 73.5699 137.08 73.4999C136.79 73.4299 136.55 73.2999 136.37 73.1199C136.19 72.9399 136.07 72.6999 136 72.3899C135.93 72.0799 135.9 71.6999 135.9 71.2499V70.9599H145.7C145.95 70.9599 146.08 70.8299 146.08 70.5799V69.2099C146.08 68.9599 145.95 68.8299 145.7 68.8299H135.9V68.6599C135.9 68.2099 135.93 67.8299 136 67.5199C136.07 67.2099 136.19 66.9699 136.37 66.7899C136.55 66.6099 136.79 66.4799 137.08 66.4099C137.37 66.3399 137.75 66.2999 138.2 66.2999H145.78C146.05 66.2999 146.18 66.1699 146.18 65.9199V64.2699C146.18 64.0199 146.05 63.8899 145.78 63.8899V63.8799Z" fill="url(#paint5_linear_82_28)"/>
<path d="M162.02 63.8799H154.2C153.32 63.8799 152.57 63.9599 151.96 64.1299C151.35 64.2999 150.85 64.5599 150.46 64.9299C150.07 65.2899 149.79 65.7699 149.61 66.3399C149.43 66.9199 149.34 67.6199 149.34 68.4599V71.4399C149.34 72.2699 149.43 72.9799 149.61 73.5699C149.79 74.1499 150.07 74.6299 150.46 74.9899C150.85 75.3499 151.35 75.6199 151.96 75.7799C152.57 75.9399 153.32 76.0199 154.2 76.0199H162.02C162.27 76.0199 162.4 75.8899 162.4 75.6399V73.9399C162.4 73.6899 162.27 73.5599 162.02 73.5599H154.3C153.85 73.5599 153.48 73.5199 153.18 73.4499C152.88 73.3799 152.65 73.2499 152.48 73.0699C152.31 72.8899 152.18 72.6499 152.11 72.3399C152.03 72.0299 152 71.6499 152 71.1899V68.7299C152 68.2699 152.04 67.8899 152.11 67.5899C152.19 67.2899 152.31 67.0499 152.48 66.8699C152.65 66.6899 152.89 66.5599 153.18 66.4899C153.47 66.4199 153.85 66.3799 154.3 66.3799H162.02C162.27 66.3799 162.4 66.2499 162.4 65.9799V64.2799C162.4 64.0299 162.27 63.8999 162.02 63.8999V63.8799Z" fill="url(#paint6_linear_82_28)"/>
<path d="M179.39 64.9299C179 64.5599 178.5 64.2999 177.88 64.1299C177.26 63.9599 176.51 63.8799 175.63 63.8799H170.27C169.39 63.8799 168.64 63.9599 168.03 64.1299C167.42 64.2999 166.92 64.5599 166.53 64.9299C166.14 65.2899 165.86 65.7699 165.68 66.3399C165.5 66.9199 165.41 67.6199 165.41 68.4599V71.4399C165.41 72.2699 165.5 72.9799 165.68 73.5699C165.86 74.1499 166.14 74.6299 166.53 74.9899C166.92 75.3499 167.42 75.6199 168.03 75.7799C168.64 75.9399 169.39 76.0199 170.27 76.0199H175.63C176.51 76.0199 177.26 75.9399 177.88 75.7799C178.5 75.6199 179 75.3499 179.39 74.9899C179.78 74.6199 180.06 74.1499 180.23 73.5699C180.4 72.9899 180.49 72.2799 180.49 71.4399V68.4599C180.49 67.6299 180.4 66.9199 180.23 66.3399C180.06 65.7599 179.78 65.2899 179.39 64.9299ZM177.84 71.2599C177.84 71.7099 177.8 72.0899 177.73 72.3999C177.65 72.7099 177.53 72.9499 177.36 73.1299C177.19 73.3099 176.95 73.4399 176.66 73.5099C176.37 73.5899 175.99 73.6199 175.54 73.6199H170.39C169.94 73.6199 169.57 73.5799 169.27 73.5099C168.98 73.4399 168.74 73.3099 168.57 73.1299C168.4 72.9499 168.27 72.7099 168.2 72.3999C168.12 72.0899 168.09 71.7099 168.09 71.2599V68.6599C168.09 68.2099 168.13 67.8299 168.2 67.5199C168.28 67.2099 168.4 66.9699 168.57 66.7899C168.74 66.6099 168.98 66.4799 169.27 66.4099C169.56 66.3399 169.94 66.2999 170.39 66.2999H175.54C175.99 66.2999 176.36 66.3399 176.66 66.4099C176.96 66.4799 177.19 66.6099 177.36 66.7899C177.53 66.9699 177.66 67.2099 177.73 67.5199C177.8 67.8299 177.84 68.2099 177.84 68.6599V71.2599Z" fill="url(#paint7_linear_82_28)"/>
<path d="M193.8 68.8299H187.29C186.69 68.8299 186.39 68.5099 186.39 67.8599V67.2699C186.39 66.9699 186.46 66.7299 186.6 66.5599C186.74 66.3899 186.98 66.2999 187.31 66.2999H196C196.25 66.2999 196.38 66.1699 196.38 65.9199V64.2699C196.38 64.0199 196.25 63.8899 196 63.8899H186.81C185.76 63.8899 184.98 64.1499 184.49 64.6699C184 65.1899 183.74 65.8699 183.74 66.7199V67.9899C183.74 68.9499 183.99 69.6899 184.5 70.1999C185.01 70.7099 185.77 70.9699 186.77 70.9699H193.27C193.87 70.9699 194.17 71.2899 194.17 71.9399V72.6499C194.17 72.9499 194.1 73.1899 193.96 73.3599C193.82 73.5299 193.58 73.6199 193.25 73.6199H184.14C183.87 73.6199 183.74 73.7499 183.74 73.9999V75.6499C183.74 75.8999 183.87 76.0299 184.14 76.0299H193.75C194.8 76.0299 195.58 75.7699 196.07 75.2499C196.57 74.7299 196.82 74.0499 196.82 73.1999V71.8099C196.82 70.8499 196.57 70.1099 196.06 69.5999C195.55 69.0899 194.79 68.8299 193.79 68.8299H193.8Z" fill="url(#paint8_linear_82_28)"/>
<path d="M211.84 63.8799C211.66 63.8799 211.52 63.9499 211.42 64.0899L206.75 70.3499L202.12 64.0899C202.03 63.9499 201.89 63.8799 201.7 63.8799H199.38C199.28 63.8799 199.21 63.9199 199.18 63.9899C199.15 64.0699 199.17 64.1399 199.22 64.2199L205.38 72.2999V75.6299C205.38 75.8799 205.51 76.0099 205.78 76.0099H207.65C207.9 76.0099 208.03 75.8799 208.03 75.6299V72.2999L214.26 64.2199C214.32 64.1399 214.33 64.0599 214.3 63.9899C214.27 63.9199 214.2 63.8799 214.11 63.8799H211.84Z" fill="url(#paint9_linear_82_28)"/>
<path d="M226.23 68.8299H219.72C219.12 68.8299 218.82 68.5099 218.82 67.8599V67.2699C218.82 66.9699 218.89 66.7299 219.03 66.5599C219.17 66.3899 219.41 66.2999 219.74 66.2999H228.43C228.68 66.2999 228.81 66.1699 228.81 65.9199V64.2699C228.81 64.0199 228.68 63.8899 228.43 63.8899H219.24C218.19 63.8899 217.41 64.1499 216.92 64.6699C216.43 65.1899 216.17 65.8699 216.17 66.7199V67.9899C216.17 68.9499 216.42 69.6899 216.93 70.1999C217.44 70.7099 218.2 70.9699 219.2 70.9699H225.7C226.3 70.9699 226.6 71.2899 226.6 71.9399V72.6499C226.6 72.9499 226.53 73.1899 226.39 73.3599C226.25 73.5299 226.01 73.6199 225.68 73.6199H216.57C216.3 73.6199 216.17 73.7499 216.17 73.9999V75.6499C216.17 75.8999 216.3 76.0299 216.57 76.0299H226.18C227.23 76.0299 228.01 75.7699 228.5 75.2499C229 74.7299 229.25 74.0499 229.25 73.1999V71.8099C229.25 70.8499 229 70.1099 228.49 69.5999C227.98 69.0899 227.22 68.8299 226.22 68.8299H226.23Z" fill="url(#paint10_linear_82_28)"/>
<path d="M245.75 63.8799H232.2C231.93 63.8799 231.8 64.0099 231.8 64.2599V65.9599C231.8 66.2299 231.93 66.3599 232.2 66.3599H237.65V75.6399C237.65 75.8899 237.78 76.0199 238.03 76.0199H239.92C240.17 76.0199 240.3 75.8899 240.3 75.6399V66.3599H245.75C246.02 66.3599 246.15 66.2299 246.15 65.9599V64.2599C246.15 64.0099 246.02 63.8799 245.75 63.8799Z" fill="url(#paint11_linear_82_28)"/>
<path d="M261 63.8799H253.37C252.49 63.8799 251.74 63.9599 251.13 64.1299C250.52 64.2999 250.02 64.5599 249.63 64.9299C249.24 65.2899 248.96 65.7699 248.78 66.3399C248.6 66.9199 248.51 67.6199 248.51 68.4599V71.4399C248.51 72.2699 248.6 72.9799 248.78 73.5699C248.96 74.1499 249.24 74.6299 249.63 74.9899C250.02 75.3499 250.52 75.6199 251.13 75.7799C251.74 75.9399 252.49 76.0199 253.37 76.0199H261C261.27 76.0199 261.4 75.8899 261.4 75.6399V73.9899C261.4 73.7399 261.27 73.6099 261 73.6099H253.42C252.97 73.6099 252.6 73.5699 252.3 73.4999C252.01 73.4299 251.77 73.2999 251.59 73.1199C251.41 72.9399 251.29 72.6999 251.22 72.3899C251.15 72.0799 251.12 71.6999 251.12 71.2499V70.9599H260.92C261.17 70.9599 261.3 70.8299 261.3 70.5799V69.2099C261.3 68.9599 261.17 68.8299 260.92 68.8299H251.12V68.6599C251.12 68.2099 251.15 67.8299 251.22 67.5199C251.29 67.2099 251.41 66.9699 251.59 66.7899C251.77 66.6099 252.01 66.4799 252.3 66.4099C252.59 66.3399 252.97 66.2999 253.42 66.2999H261C261.27 66.2999 261.4 66.1699 261.4 65.9199V64.2699C261.4 64.0199 261.27 63.8899 261 63.8899V63.8799Z" fill="url(#paint12_linear_82_28)"/>
<path d="M281.59 63.8799H279.73C279.48 63.8799 279.26 63.8999 279.08 63.9299C278.9 63.9599 278.74 64.0299 278.6 64.1299C278.46 64.2299 278.34 64.3599 278.23 64.5299C278.12 64.6999 278.01 64.9199 277.89 65.1999L274.28 73.5299C274.23 73.6299 274.15 73.6799 274.04 73.6799H273.83C273.71 73.6799 273.63 73.6299 273.59 73.5299L269.98 65.1999C269.86 64.9199 269.75 64.6999 269.64 64.5299C269.53 64.3599 269.41 64.2299 269.27 64.1299C269.13 64.0299 268.97 63.9699 268.78 63.9299C268.59 63.8899 268.37 63.8799 268.12 63.8799H266.23C265.62 63.8799 265.21 64.0199 265 64.2899C264.79 64.5599 264.69 65.0299 264.69 65.6899V75.6499C264.69 75.8999 264.82 76.0299 265.09 76.0299H266.86C267.11 76.0299 267.24 75.8999 267.24 75.6499V66.5899C267.24 66.4799 267.29 66.4199 267.38 66.4199H267.54C267.66 66.4199 267.73 66.4699 267.76 66.5599L271.26 74.3299C271.4 74.6399 271.54 74.9099 271.68 75.1199C271.82 75.3299 271.98 75.5099 272.15 75.6499C272.32 75.7899 272.51 75.8899 272.72 75.9399C272.93 75.9899 273.18 76.0299 273.47 76.0299H274.3C274.59 76.0299 274.84 75.9999 275.05 75.9399C275.26 75.8799 275.46 75.7799 275.62 75.6499C275.79 75.5099 275.94 75.3299 276.09 75.1199C276.24 74.9099 276.38 74.6399 276.52 74.3299L280.02 66.5599C280.06 66.4699 280.13 66.4199 280.24 66.4199H280.4C280.49 66.4199 280.54 66.4799 280.54 66.5899V75.6499C280.54 75.8999 280.67 76.0299 280.92 76.0299H282.69C282.96 76.0299 283.09 75.8999 283.09 75.6499V65.6899C283.09 65.0299 282.99 64.5699 282.78 64.2899C282.57 64.0199 282.17 63.8799 281.57 63.8799H281.59Z" fill="url(#paint13_linear_82_28)"/>
<defs>
<linearGradient id="paint0_linear_82_28" x1="-129.32" y1="-135.47" x2="194.73" y2="182.44" gradientUnits="userSpaceOnUse">
<stop stop-color="#14EFC0"/>
<stop offset="1" stop-color="#2DBDC5"/>
</linearGradient>
<linearGradient id="paint1_linear_82_28" x1="-105.61" y1="-159.64" x2="218.44" y2="158.27" gradientUnits="userSpaceOnUse">
<stop stop-color="#14EFC0"/>
<stop offset="1" stop-color="#2DBDC5"/>
</linearGradient>
<linearGradient id="paint2_linear_82_28" x1="-82.71" y1="-182.98" x2="241.34" y2="134.93" gradientUnits="userSpaceOnUse">
<stop stop-color="#14EFC0"/>
<stop offset="1" stop-color="#2DBDC5"/>
</linearGradient>
<linearGradient id="paint3_linear_82_28" x1="-54.6699" y1="-211.56" x2="269.39" y2="106.34" gradientUnits="userSpaceOnUse">
<stop stop-color="#14EFC0"/>
<stop offset="1" stop-color="#2DBDC5"/>
</linearGradient>
<linearGradient id="paint4_linear_82_28" x1="-22.8" y1="-244.05" x2="301.25" y2="73.8598" gradientUnits="userSpaceOnUse">
<stop stop-color="#14EFC0"/>
<stop offset="1" stop-color="#2DBDC5"/>
</linearGradient>
<linearGradient id="paint5_linear_82_28" x1="-99.5797" y1="-165.79" x2="224.47" y2="152.119" gradientUnits="userSpaceOnUse">
<stop stop-color="#14EFC0"/>
<stop offset="1" stop-color="#2DBDC5"/>
</linearGradient>
<linearGradient id="paint6_linear_82_28" x1="-91.66" y1="-173.85" x2="232.39" y2="144.05" gradientUnits="userSpaceOnUse">
<stop stop-color="#14EFC0"/>
<stop offset="1" stop-color="#2DBDC5"/>
</linearGradient>
<linearGradient id="paint7_linear_82_28" x1="-83.7697" y1="-181.9" x2="240.28" y2="136.01" gradientUnits="userSpaceOnUse">
<stop stop-color="#14EFC0"/>
<stop offset="1" stop-color="#2DBDC5"/>
</linearGradient>
<linearGradient id="paint8_linear_82_28" x1="-75.3704" y1="-190.46" x2="248.68" y2="127.45" gradientUnits="userSpaceOnUse">
<stop stop-color="#14EFC0"/>
<stop offset="1" stop-color="#2DBDC5"/>
</linearGradient>
<linearGradient id="paint9_linear_82_28" x1="-65.6498" y1="-200.37" x2="258.4" y2="117.54" gradientUnits="userSpaceOnUse">
<stop stop-color="#14EFC0"/>
<stop offset="1" stop-color="#2DBDC5"/>
</linearGradient>
<linearGradient id="paint10_linear_82_28" x1="-59.4704" y1="-206.67" x2="264.58" y2="111.24" gradientUnits="userSpaceOnUse">
<stop stop-color="#14EFC0"/>
<stop offset="1" stop-color="#2DBDC5"/>
</linearGradient>
<linearGradient id="paint11_linear_82_28" x1="-49.9601" y1="-216.36" x2="274.09" y2="101.54" gradientUnits="userSpaceOnUse">
<stop stop-color="#14EFC0"/>
<stop offset="1" stop-color="#2DBDC5"/>
</linearGradient>
<linearGradient id="paint12_linear_82_28" x1="-43.0703" y1="-223.38" x2="280.98" y2="94.5203" gradientUnits="userSpaceOnUse">
<stop stop-color="#14EFC0"/>
<stop offset="1" stop-color="#2DBDC5"/>
</linearGradient>
<linearGradient id="paint13_linear_82_28" x1="-34.3899" y1="-232.23" x2="289.66" y2="85.6696" gradientUnits="userSpaceOnUse">
<stop stop-color="#14EFC0"/>
<stop offset="1" stop-color="#2DBDC5"/>
</linearGradient>
</defs>
</svg>
